<svg width="40" height="40" viewBox="0 0 40 40" fill="none" xmlns="http://www.w3.org/2000/svg">
<path d="M35.8883 11.8528C35.9137 12.2081 35.9137 12.5635 35.9137 12.9188C35.9137 23.7563 27.665 36.2436 12.5888 36.2436C7.94414 36.2436 3.62945 34.8984 0 32.5635C0.659922 32.6395 1.29437 32.6649 1.97969 32.6649C5.81211 32.6649 9.34008 31.3706 12.1573 29.1624C8.55328 29.0863 5.53297 26.7259 4.49234 23.4771C5 23.5532 5.50758 23.604 6.04063 23.604C6.77664 23.604 7.51273 23.5024 8.19797 23.3249C4.44164 22.5634 1.6243 19.2639 1.6243 15.2792V15.1777C2.71563 15.7868 3.98477 16.1675 5.32984 16.2182C3.12172 14.7461 1.67508 12.2335 1.67508 9.3908C1.67508 7.86799 2.08109 6.47205 2.7918 5.25377C6.82734 10.2284 12.8934 13.4771 19.6953 13.8324C19.5684 13.2233 19.4923 12.5888 19.4923 11.9543C19.4923 7.4365 23.1471 3.75635 27.6902 3.75635C30.0506 3.75635 32.1826 4.74619 33.6801 6.34518C35.5328 5.98986 37.3095 5.30455 38.8831 4.36549C38.2739 6.26908 36.9795 7.86807 35.2791 8.88322C36.9288 8.70564 38.5278 8.24869 39.9998 7.61424C38.8833 9.23853 37.4873 10.6852 35.8883 11.8528Z" fill="white"/>
</svg>
