<svg width="40" height="40" viewBox="0 0 40 40" fill="none" xmlns="http://www.w3.org/2000/svg">
<g clip-path="url(#clip0_9_5064)">
<path d="M39.375 20C39.375 9.29688 30.7031 0.625 20 0.625C9.29688 0.625 0.625 9.29688 0.625 20C0.625 29.6703 7.71016 37.6859 16.9727 39.1406V25.6008H12.0508V20H16.9727V15.7312C16.9727 10.8758 19.8633 8.19375 24.2906 8.19375C26.4109 8.19375 28.6281 8.57188 28.6281 8.57188V13.3375H26.1844C23.7781 13.3375 23.0273 14.8312 23.0273 16.3633V20H28.4008L27.5414 25.6008H23.0273V39.1406C32.2898 37.6859 39.375 29.6703 39.375 20Z" fill="white"/>
</g>
<defs>
<clipPath id="clip0_9_5064">
<rect width="40" height="40" fill="white"/>
</clipPath>
</defs>
</svg>
