<svg width="50" height="25" viewBox="0 0 50 25" fill="none" xmlns="http://www.w3.org/2000/svg">
<g clip-path="url(#clip0_25_7685)">
<path d="M4.46295 1.32935H36.8465C38.5189 1.32935 39.8757 2.68612 39.8757 4.3585V20.6414C39.8757 22.3121 38.5189 23.6705 36.8465 23.6705H4.50525C2.8345 23.6705 1.4761 22.3138 1.4761 20.6414V4.3162C1.4761 2.66822 2.81497 1.32935 4.46295 1.32935Z" fill="white"/>
<path d="M36.8465 24.6467H4.50525C2.29764 24.6467 0.5 22.8506 0.5 20.6414V4.31622C0.5 2.13139 2.27812 0.353271 4.46295 0.353271H36.8465C39.0558 0.353271 40.8518 2.14929 40.8518 4.35852V20.6414C40.8518 22.849 39.0558 24.6467 36.8465 24.6467ZM4.46295 2.30709C3.35508 2.30709 2.45382 3.20835 2.45382 4.31622V20.6414C2.45382 21.7737 3.3746 22.6928 4.50525 22.6928H36.8465C37.9788 22.6928 38.898 21.7721 38.898 20.6414V4.35852C38.898 3.22625 37.9772 2.30709 36.8465 2.30709H4.46295Z" fill="#FF3093"/>
<path d="M48.5239 2.79834V22.2015L40.0384 16.641V8.36046L48.5239 2.79834Z" fill="white"/>
<path d="M48.5239 23.1777C48.3368 23.1777 48.1514 23.124 47.9887 23.0182L39.5032 17.4577C39.2282 17.2772 39.0623 16.9697 39.0623 16.6411V8.36054C39.0623 8.03192 39.2282 7.72445 39.5032 7.54387L47.9887 1.98338C48.288 1.78654 48.6719 1.77027 48.9876 1.94109C49.3032 2.1119 49.5 2.44215 49.5 2.80005V22.2032C49.5 22.5627 49.3032 22.8913 48.9876 23.0622C48.8428 23.1403 48.6833 23.1793 48.5239 23.1793V23.1777ZM41.0145 16.1124L47.5462 20.3925V4.60583L41.0145 8.886V16.1107V16.1124Z" fill="#FF3093"/>
<path d="M8.02733 16.537C7.85488 16.537 7.71335 16.3971 7.71335 16.223V8.7754C7.71335 8.60296 7.85326 8.46143 8.02733 8.46143H9.50123C9.67367 8.46143 9.81521 8.60133 9.81521 8.7754V14.7426H12.5564C12.7289 14.7426 12.8704 14.8825 12.8704 15.0566V16.2246C12.8704 16.3971 12.7305 16.5386 12.5564 16.5386H8.02733V16.537Z" fill="#FF3093"/>
<path d="M16.8708 8.46143H15.3968C15.2234 8.46143 15.0829 8.602 15.0829 8.7754V16.2214C15.0829 16.3948 15.2234 16.5354 15.3968 16.5354H16.8708C17.0442 16.5354 17.1847 16.3948 17.1847 16.2214V8.7754C17.1847 8.602 17.0442 8.46143 16.8708 8.46143Z" fill="#FF3093"/>
<path d="M21.4535 16.5371C21.3152 16.5371 21.1932 16.446 21.1526 16.3142L18.9206 8.86659C18.8929 8.77223 18.9108 8.66812 18.9694 8.59003C19.0279 8.51031 19.1223 8.46313 19.2215 8.46313H20.7751C20.9183 8.46313 21.0436 8.56074 21.0794 8.70065L21.9383 12.1267C22.0554 12.5546 22.1547 12.9841 22.249 13.3989C22.3206 13.7113 22.3938 14.0301 22.4752 14.3522C22.5549 14.0334 22.6281 13.721 22.6997 13.4168C22.7989 12.9955 22.9014 12.5611 23.0153 12.1251L23.8629 8.70065C23.897 8.56074 24.0223 8.46313 24.1671 8.46313H25.6459C25.7451 8.46313 25.8378 8.51031 25.898 8.59003C25.9566 8.66974 25.9745 8.77223 25.9468 8.86821L23.705 16.3158C23.6644 16.4476 23.5424 16.5387 23.4041 16.5387H21.4519L21.4535 16.5371Z" fill="#FF3093"/>
<path d="M28.008 16.537C27.8356 16.537 27.694 16.3971 27.694 16.223V8.7754C27.694 8.60296 27.8339 8.46143 28.008 8.46143H32.5794C32.7518 8.46143 32.8934 8.60133 32.8934 8.7754V9.92232C32.8934 10.0948 32.7535 10.2363 32.5794 10.2363H29.7959V11.4857H32.1141C32.2866 11.4857 32.4281 11.6256 32.4281 11.7997V12.9677C32.4281 13.1402 32.2882 13.2817 32.1141 13.2817H29.7959V14.7426H32.6965C32.869 14.7426 33.0105 14.8825 33.0105 15.0566V16.2246C33.0105 16.3971 32.8706 16.5386 32.6965 16.5386H28.008V16.537Z" fill="#FF3093"/>
</g>
<defs>
<clipPath id="clip0_25_7685">
<rect width="49" height="24.2934" fill="white" transform="translate(0.5 0.353271)"/>
</clipPath>
</defs>
</svg>
