<svg width="40" height="40" viewBox="0 0 40 40" fill="none" xmlns="http://www.w3.org/2000/svg">
<g clip-path="url(#clip0_9_5056)">
<path d="M17.2 18.184C17.648 17.912 17.88 17.448 17.88 16.792C17.88 16.112 17.664 15.632 17.248 15.352C16.832 15.072 16 14.936 14.768 14.936H13.704V18.584H14.696C15.904 18.584 16.736 18.456 17.2 18.184Z" fill="white"/>
<path d="M17.976 22.288C17.536 21.984 16.704 21.832 15.504 21.832H13.696V25.8H15.424C16.592 25.8 17.432 25.656 17.912 25.36C18.392 25.064 18.64 24.568 18.64 23.888C18.648 23.128 18.424 22.592 17.976 22.288Z" fill="white"/>
<path d="M31.848 0H8.144C3.648 0 0 3.648 0 8.144V31.848C0 36.352 3.648 40 8.144 40H31.848C36.352 40 40 36.352 40 31.856V8.144C40 3.648 36.352 0 31.848 0ZM26.608 10.912H30.608V23.032H26.608V10.912ZM22.728 26.456C22.328 27.192 21.72 27.784 20.976 28.168C20.36 28.496 19.6 28.736 18.688 28.88C17.776 29.024 16.288 29.088 14.224 29.088H9.088V10.912H14.08C16.128 10.912 17.56 10.976 18.376 11.104C19.192 11.232 19.888 11.464 20.472 11.792C21.112 12.136 21.64 12.656 22 13.28C22.36 13.944 22.536 14.688 22.528 15.448C22.528 16.48 22.264 17.304 21.744 17.904C21.224 18.504 20.384 18.976 19.232 19.288C20.528 19.384 21.536 19.84 22.256 20.648C22.984 21.456 23.344 22.536 23.344 23.888C23.344 24.864 23.144 25.712 22.728 26.456ZM28.608 29.096C27.336 29.096 26.304 28.064 26.304 26.792C26.304 25.52 27.336 24.488 28.608 24.488C29.88 24.488 30.912 25.52 30.912 26.792C30.904 28.064 29.88 29.088 28.608 29.096Z" fill="white"/>
</g>
<defs>
<clipPath id="clip0_9_5056">
<rect width="40" height="40" fill="white"/>
</clipPath>
</defs>
</svg>
